<svg width="322" height="67" viewBox="0 0 322 67" fill="none" xmlns="http://www.w3.org/2000/svg">
<path d="M21.448 17.352V18.472C20.1787 18.5093 19.208 18.6587 18.536 18.92C17.9013 19.144 17.472 19.592 17.248 20.264C17.024 20.8987 16.912 21.9067 16.912 23.288V52.184C16.912 53.192 16.9867 53.9573 17.136 54.48C17.2853 54.9653 17.5653 55.3013 17.976 55.488C18.3867 55.6373 18.984 55.712 19.768 55.712H21.616C22.5867 55.712 23.632 55.3387 24.752 54.592C25.872 53.8453 26.9547 52.8187 28 51.512C29.0827 50.2053 30.016 48.7307 30.8 47.088C31.584 45.408 32.144 43.672 32.48 41.88H33.768C33.656 43.224 33.6 44.9413 33.6 47.032C33.6 48.0027 33.6187 49.4213 33.656 51.288C33.6933 53.1173 33.8053 55.0213 33.992 57C32.088 56.9253 29.9413 56.888 27.552 56.888C25.1627 56.8507 23.0347 56.832 21.168 56.832C20.16 56.832 18.872 56.832 17.304 56.832C15.7733 56.832 14.0933 56.8507 12.264 56.888C10.472 56.888 8.64267 56.9067 6.776 56.944C4.94667 56.944 3.21067 56.9627 1.568 57V55.88C2.72533 55.8053 3.584 55.656 4.144 55.432C4.704 55.208 5.07733 54.76 5.264 54.088C5.45067 53.416 5.544 52.408 5.544 51.064V23.288C5.544 21.9067 5.45067 20.8987 5.264 20.264C5.07733 19.592 4.68533 19.144 4.088 18.92C3.528 18.6587 2.688 18.5093 1.568 18.472V17.352C2.65067 17.3893 4.06933 17.4267 5.824 17.464C7.616 17.5013 9.52 17.52 11.536 17.52C13.4027 17.52 15.232 17.5013 17.024 17.464C18.816 17.4267 20.2907 17.3893 21.448 17.352ZM61.8227 17.352L75.3747 52.296C75.8974 53.5653 76.4574 54.48 77.0547 55.04C77.652 55.5627 78.1934 55.8427 78.6787 55.88V57C77.3347 56.9253 75.7667 56.888 73.9747 56.888C72.1827 56.8507 70.3534 56.832 68.4867 56.832C66.5827 56.832 64.7907 56.8507 63.1107 56.888C61.4307 56.888 60.0867 56.9253 59.0787 57V55.88C60.9827 55.8053 62.1774 55.488 62.6627 54.928C63.1854 54.3307 63.0734 53.08 62.3267 51.176L53.3667 26.368L54.4867 24.408L46.7587 44.512C45.8254 46.9387 45.2467 48.8987 45.0227 50.392C44.836 51.848 44.9294 52.968 45.3027 53.752C45.676 54.536 46.2734 55.0773 47.0947 55.376C47.916 55.6747 48.8867 55.8427 50.0067 55.88V57C48.6254 56.9253 47.3747 56.888 46.2547 56.888C45.172 56.8507 43.9774 56.832 42.6707 56.832C41.9614 56.832 41.196 56.8507 40.3747 56.888C39.5907 56.888 38.9187 56.9253 38.3587 57V55.88C39.2174 55.7307 40.0574 55.1893 40.8787 54.256C41.7374 53.2853 42.6147 51.6427 43.5107 49.328L55.9427 17.352C56.8387 17.4267 57.8094 17.464 58.8547 17.464C59.9374 17.464 60.9267 17.4267 61.8227 17.352ZM63.7827 40.872V41.992H47.0947L47.6547 40.872H63.7827ZM175.563 17.352C175.413 19.2187 175.301 21.0293 175.227 22.784C175.189 24.5013 175.171 25.8267 175.171 26.76C175.171 27.544 175.189 28.2907 175.227 29C175.264 29.7093 175.301 30.3067 175.339 30.792H174.051C173.416 27.6933 172.539 25.2667 171.419 23.512C170.299 21.72 169.067 20.4693 167.723 19.76C166.416 19.0133 165.091 18.64 163.747 18.64H163.019C162.048 18.64 161.32 18.7333 160.835 18.92C160.349 19.0693 160.013 19.3867 159.827 19.872C159.677 20.3573 159.603 21.1227 159.603 22.168V50.504C159.603 51.9973 159.752 53.136 160.051 53.92C160.387 54.6667 161.003 55.152 161.899 55.376C162.795 55.6 164.101 55.712 165.819 55.712V57C164.549 56.9627 162.888 56.9253 160.835 56.888C158.781 56.8507 156.597 56.832 154.283 56.832C152.565 56.832 150.848 56.8507 149.131 56.888C147.413 56.9253 145.789 56.9627 144.259 57V55.88C145.416 55.8053 146.275 55.656 146.835 55.432C147.395 55.208 147.768 54.76 147.955 54.088C148.141 53.416 148.235 52.408 148.235 51.064V23.288C148.235 21.9067 148.141 20.8987 147.955 20.264C147.768 19.592 147.376 19.144 146.779 18.92C146.219 18.6587 145.379 18.5093 144.259 18.472V17.352C145.901 17.3893 147.637 17.4267 149.467 17.464C151.333 17.464 153.163 17.4827 154.955 17.52C156.784 17.52 158.464 17.52 159.995 17.52C161.563 17.52 162.851 17.52 163.859 17.52C165.576 17.52 167.517 17.52 169.683 17.52C171.885 17.4827 173.845 17.4267 175.563 17.352ZM167.443 36.504C167.443 36.504 167.443 36.6907 167.443 37.064C167.443 37.4373 167.443 37.624 167.443 37.624H157.923C157.923 37.624 157.923 37.4373 157.923 37.064C157.923 36.6907 157.923 36.504 157.923 36.504H167.443ZM169.067 29.112C168.917 31.24 168.843 32.864 168.843 33.984C168.88 35.104 168.899 36.1307 168.899 37.064C168.899 37.9973 168.917 39.024 168.955 40.144C168.992 41.264 169.085 42.888 169.235 45.016H167.947C167.723 43.6347 167.256 42.384 166.547 41.264C165.875 40.144 164.997 39.2667 163.915 38.632C162.832 37.96 161.581 37.624 160.163 37.624V36.504C161.208 36.504 162.16 36.28 163.019 35.832C163.877 35.384 164.624 34.7867 165.259 34.04C165.931 33.2933 166.472 32.4907 166.883 31.632C167.331 30.7733 167.629 29.9333 167.779 29.112H169.067ZM200.193 17.352L213.745 52.296C214.268 53.5653 214.828 54.48 215.425 55.04C216.022 55.5627 216.564 55.8427 217.049 55.88V57C215.705 56.9253 214.137 56.888 212.345 56.888C210.553 56.8507 208.724 56.832 206.857 56.832C204.953 56.832 203.161 56.8507 201.481 56.888C199.801 56.888 198.457 56.9253 197.449 57V55.88C199.353 55.8053 200.548 55.488 201.033 54.928C201.556 54.3307 201.444 53.08 200.697 51.176L191.737 26.368L192.857 24.408L185.129 44.512C184.196 46.9387 183.617 48.8987 183.393 50.392C183.206 51.848 183.3 52.968 183.673 53.752C184.046 54.536 184.644 55.0773 185.465 55.376C186.286 55.6747 187.257 55.8427 188.377 55.88V57C186.996 56.9253 185.745 56.888 184.625 56.888C183.542 56.8507 182.348 56.832 181.041 56.832C180.332 56.832 179.566 56.8507 178.745 56.888C177.961 56.888 177.289 56.9253 176.729 57V55.88C177.588 55.7307 178.428 55.1893 179.249 54.256C180.108 53.2853 180.985 51.6427 181.881 49.328L194.313 17.352C195.209 17.4267 196.18 17.464 197.225 17.464C198.308 17.464 199.297 17.4267 200.193 17.352ZM202.153 40.872V41.992H185.465L186.025 40.872H202.153ZM221.633 17.352C222.715 17.3893 224.134 17.4267 225.889 17.464C227.681 17.5013 229.473 17.52 231.265 17.52C233.131 17.52 234.923 17.5013 236.641 17.464C238.358 17.4267 239.571 17.408 240.281 17.408C244.089 17.408 247.225 17.7627 249.689 18.472C252.19 19.1813 254.057 20.264 255.289 21.72C256.521 23.1387 257.137 24.9493 257.137 27.152C257.137 28.5333 256.857 29.8773 256.297 31.184C255.737 32.4907 254.785 33.6853 253.441 34.768C252.097 35.8133 250.249 36.6533 247.897 37.288C245.582 37.8853 242.633 38.184 239.049 38.184H233.673V37.064H238.489C240.393 37.064 241.83 36.6533 242.801 35.832C243.809 34.9733 244.481 33.8533 244.817 32.472C245.19 31.0533 245.377 29.4853 245.377 27.768C245.377 24.8187 244.966 22.5413 244.145 20.936C243.361 19.2933 241.979 18.472 240.001 18.472C238.731 18.472 237.91 18.7893 237.537 19.424C237.163 20.0587 236.977 21.3467 236.977 23.288V51.064C236.977 52.408 237.07 53.416 237.257 54.088C237.481 54.76 237.873 55.208 238.433 55.432C238.993 55.656 239.833 55.8053 240.953 55.88V57C239.87 56.9253 238.47 56.888 236.753 56.888C235.073 56.8507 233.355 56.832 231.601 56.832C229.585 56.832 227.681 56.8507 225.889 56.888C224.134 56.888 222.715 56.9253 221.633 57V55.88C222.79 55.8053 223.649 55.656 224.209 55.432C224.769 55.208 225.142 54.76 225.329 54.088C225.515 53.416 225.609 52.408 225.609 51.064V23.288C225.609 21.9067 225.515 20.8987 225.329 20.264C225.142 19.592 224.75 19.144 224.153 18.92C223.593 18.6587 222.753 18.5093 221.633 18.472V17.352ZM233.337 37.232C234.681 37.2693 235.95 37.344 237.145 37.456C238.339 37.568 239.441 37.68 240.449 37.792C241.457 37.8667 242.315 37.9227 243.025 37.96C247.019 38.1467 250.006 38.8373 251.985 40.032C254.001 41.2267 255.233 42.9813 255.681 45.296L256.857 51.12C257.155 52.5013 257.491 53.4533 257.865 53.976C258.238 54.4987 258.742 54.76 259.377 54.76C259.75 54.76 260.067 54.704 260.329 54.592C260.59 54.48 260.851 54.2933 261.113 54.032L261.841 54.76C260.683 55.9173 259.414 56.7013 258.033 57.112C256.689 57.56 255.158 57.784 253.441 57.784C251.014 57.784 249.054 57.3547 247.561 56.496C246.067 55.6 245.153 54.0133 244.817 51.736L243.977 46.136C243.753 44.6053 243.473 43.2427 243.137 42.048C242.801 40.8533 242.353 39.92 241.793 39.248C241.233 38.5387 240.467 38.184 239.497 38.184H233.449L233.337 37.232ZM297.776 17.352C297.627 19.2187 297.515 21.0293 297.44 22.784C297.403 24.5013 297.384 25.8267 297.384 26.76C297.384 27.544 297.403 28.2907 297.44 29C297.477 29.7093 297.515 30.3067 297.552 30.792H296.264C295.816 27.6933 295.069 25.2667 294.024 23.512C292.979 21.72 291.747 20.4693 290.328 19.76C288.947 19.0133 287.491 18.64 285.96 18.64H285.232C284.261 18.64 283.533 18.7333 283.048 18.92C282.563 19.0693 282.227 19.3867 282.04 19.872C281.891 20.3573 281.816 21.1227 281.816 22.168V52.184C281.816 53.192 281.891 53.9573 282.04 54.48C282.227 54.9653 282.563 55.3013 283.048 55.488C283.533 55.6373 284.261 55.712 285.232 55.712H287.08C288.312 55.712 289.6 55.32 290.944 54.536C292.325 53.7147 293.595 52.3333 294.752 50.392C295.909 48.4507 296.787 45.8 297.384 42.44H298.672C298.56 43.784 298.504 45.5013 298.504 47.592C298.504 48.5253 298.523 49.8693 298.56 51.624C298.597 53.3413 298.709 55.1333 298.896 57C296.992 56.9253 294.845 56.888 292.456 56.888C290.067 56.8507 287.939 56.832 286.072 56.832C285.064 56.832 283.776 56.832 282.208 56.832C280.677 56.832 278.997 56.8507 277.168 56.888C275.376 56.888 273.547 56.9067 271.68 56.944C269.851 56.944 268.115 56.9627 266.472 57V55.88C267.629 55.8053 268.488 55.656 269.048 55.432C269.608 55.208 269.981 54.76 270.168 54.088C270.355 53.416 270.448 52.408 270.448 51.064V23.288C270.448 21.9067 270.355 20.8987 270.168 20.264C269.981 19.592 269.589 19.144 268.992 18.92C268.432 18.6587 267.592 18.5093 266.472 18.472V17.352C268.115 17.3893 269.851 17.4267 271.68 17.464C273.547 17.464 275.376 17.4827 277.168 17.52C278.997 17.52 280.677 17.52 282.208 17.52C283.776 17.52 285.064 17.52 286.072 17.52C287.789 17.52 289.731 17.52 291.896 17.52C294.099 17.4827 296.059 17.4267 297.776 17.352ZM289.656 36.504C289.656 36.504 289.656 36.6907 289.656 37.064C289.656 37.4373 289.656 37.624 289.656 37.624H280.136C280.136 37.624 280.136 37.4373 280.136 37.064C280.136 36.6907 280.136 36.504 280.136 36.504H289.656ZM291.28 29.112C291.131 31.24 291.056 32.864 291.056 33.984C291.093 35.104 291.112 36.1307 291.112 37.064C291.112 37.9973 291.131 39.024 291.168 40.144C291.205 41.264 291.299 42.888 291.448 45.016H290.16C289.936 43.6347 289.469 42.384 288.76 41.264C288.088 40.144 287.211 39.2667 286.128 38.632C285.045 37.96 283.795 37.624 282.376 37.624V36.504C283.421 36.504 284.373 36.28 285.232 35.832C286.091 35.384 286.837 34.7867 287.472 34.04C288.144 33.2933 288.685 32.4907 289.096 31.632C289.544 30.7733 289.843 29.9333 289.992 29.112H291.28Z" fill="#1A1A1A"/>
<path d="M135.312 17.352V18.472C134.453 18.8827 133.557 19.6853 132.624 20.88C131.69 22.0747 130.85 23.8853 130.104 26.312L120.696 57C120.248 56.9627 119.762 56.944 119.24 56.944C118.754 56.9067 118.25 56.888 117.728 56.888C117.242 56.888 116.738 56.9067 116.216 56.944C115.73 56.944 115.264 56.9627 114.816 57L103.056 21.104C102.757 20.1333 102.365 19.4613 101.88 19.088C101.394 18.7147 100.834 18.5093 100.2 18.472V17.352C101.469 17.3893 102.962 17.4267 104.68 17.464C106.397 17.5013 108.133 17.52 109.888 17.52C111.642 17.52 113.285 17.5013 114.816 17.464C116.384 17.4267 117.634 17.3893 118.568 17.352V18.472C117.41 18.5093 116.514 18.6587 115.88 18.92C115.245 19.144 114.872 19.592 114.76 20.264C114.685 20.8987 114.872 21.8693 115.32 23.176L122.992 46.472L121.368 49.888L127.024 31.8C128.069 28.4773 128.573 25.864 128.536 23.96C128.498 22.0187 128.05 20.6373 127.192 19.816C126.333 18.9573 125.157 18.5093 123.664 18.472V17.352C125.082 17.3893 126.333 17.4267 127.416 17.464C128.536 17.5013 129.73 17.52 131 17.52C131.746 17.52 132.512 17.5013 133.296 17.464C134.08 17.4267 134.752 17.3893 135.312 17.352ZM94.8238 17.352V18.472C94.1891 18.584 93.7598 18.92 93.5357 19.48C93.3491 20.0027 93.2931 20.6187 93.3678 21.328C93.4798 22 93.6291 22.616 93.8157 23.176L102.272 46.976L100.704 49.384L107.424 31.184L108.208 32.808L99.6397 57C99.1917 56.9627 98.7064 56.944 98.1838 56.944C97.6984 56.9067 97.1944 56.888 96.6717 56.888C96.1864 56.888 95.6824 56.9067 95.1598 56.944C94.6744 56.944 94.2078 56.9627 93.7598 57L80.7677 22.056C80.2824 20.7493 79.7411 19.8347 79.1437 19.312C78.5464 18.7893 77.9864 18.5093 77.4637 18.472V17.352C78.8077 17.3893 80.3757 17.4267 82.1677 17.464C83.9971 17.5013 85.7331 17.52 87.3757 17.52C89.0184 17.52 90.4744 17.5013 91.7437 17.464C93.0131 17.4267 94.0398 17.3893 94.8238 17.352Z" fill="#9B1B30"/>
<path d="M313.702 48.152C315.457 48.152 316.819 48.5627 317.79 49.384C318.761 50.168 319.246 51.3627 319.246 52.968C319.246 54.5733 318.761 55.7867 317.79 56.608C316.819 57.392 315.457 57.784 313.702 57.784C311.91 57.784 310.529 57.392 309.558 56.608C308.625 55.7867 308.158 54.5733 308.158 52.968C308.158 51.3627 308.625 50.168 309.558 49.384C310.529 48.5627 311.91 48.152 313.702 48.152Z" fill="#888888"/>
</svg>
